<svg width="13" height="12" viewBox="0 0 13 12" fill="none" xmlns="http://www.w3.org/2000/svg">
<path d="M5.30276 6.54167C5.53538 6.85265 5.83216 7.10998 6.17298 7.29618C6.51379 7.48238 6.89066 7.59311 7.27803 7.62085C7.6654 7.64859 8.0542 7.5927 8.41807 7.45697C8.78194 7.32123 9.11237 7.10883 9.38693 6.83417L11.0119 5.20917C11.5053 4.69837 11.7783 4.01424 11.7721 3.30412C11.7659 2.59401 11.4811 1.91472 10.9789 1.41258C10.4768 0.910429 9.79751 0.625597 9.08739 0.619426C8.37727 0.613255 7.69314 0.88624 7.18234 1.37958L6.25068 2.30583M7.46943 5.45833C7.23681 5.14735 6.94003 4.89003 6.59921 4.70383C6.2584 4.51762 5.88153 4.4069 5.49416 4.37915C5.10679 4.35141 4.71798 4.4073 4.35412 4.54304C3.99025 4.67877 3.65982 4.89117 3.38526 5.16583L1.76026 6.79084C1.26692 7.30163 0.993932 7.98576 1.0001 8.69588C1.00627 9.406 1.29111 10.0853 1.79325 10.5874C2.2954 11.0896 2.97468 11.3744 3.6848 11.3806C4.39492 11.3867 5.07905 11.1138 5.58984 10.6204L6.51609 9.69417" stroke="#15A9F7" stroke-linecap="round" stroke-linejoin="round"/>
</svg>
