<svg width="15" height="18" viewBox="0 0 15 18" fill="none" xmlns="http://www.w3.org/2000/svg">
<path d="M14 7.54545C14 12.6364 7.5 17 7.5 17C7.5 17 1 12.6364 1 7.54545C1 5.80949 1.68482 4.14463 2.90381 2.91712C4.12279 1.68961 5.77609 1 7.5 1C9.22391 1 10.8772 1.68961 12.0962 2.91712C13.3152 4.14463 14 5.80949 14 7.54545Z" stroke="#A8A8A8" stroke-linecap="round" stroke-linejoin="round"/>
<path d="M7.5 9.72727C8.69662 9.72727 9.66667 8.75044 9.66667 7.54545C9.66667 6.34047 8.69662 5.36364 7.5 5.36364C6.30338 5.36364 5.33333 6.34047 5.33333 7.54545C5.33333 8.75044 6.30338 9.72727 7.5 9.72727Z" stroke="#A8A8A8" stroke-linecap="round" stroke-linejoin="round"/>
</svg>
