<svg width="17" height="17" viewBox="0 0 17 17" fill="none" xmlns="http://www.w3.org/2000/svg">
<path d="M8.49948 1.37344C8.69471 1.51994 8.86553 1.53581 9.37608 1.56469C10.872 1.65055 11.8206 1.97013 12.8757 2.74475C14.1673 3.68967 14.9777 5.00772 15.2848 6.66234C15.3638 7.09072 15.4029 7.45426 15.4295 8.00221C15.4457 8.36969 15.4584 8.5122 15.542 8.67313C15.6599 8.8927 15.8883 9.03863 16.1531 9.06327C16.1792 9.06552 16.2053 9.06665 16.2311 9.06665C16.4668 9.06665 16.6855 8.96691 16.8252 8.79323C17.0107 8.56712 17.0105 8.35635 16.9924 7.90243C16.9391 6.49656 16.6317 5.23346 16.0786 4.1483C15.6843 3.37623 15.3077 2.87049 14.6391 2.21487C13.926 1.52156 13.3763 1.13369 12.5371 0.732765C11.648 0.3084 11.0191 0.174095 10.098 0.0616376C9.91212 0.0403879 9.56221 0.0126304 9.3194 0.00469493C8.85674 -0.0106115 8.67598 0.0018727 8.46236 0.191693C8.29861 0.335892 8.20937 0.554931 8.21674 0.793194C8.22407 1.02976 8.32664 1.24027 8.49948 1.37344Z" fill="white"/>
<path d="M8.49948 1.37344C8.69471 1.51994 8.86553 1.53581 9.37608 1.56469C10.872 1.65055 11.8206 1.97013 12.8757 2.74475C14.1673 3.68967 14.9777 5.00772 15.2848 6.66234C15.3638 7.09072 15.4029 7.45426 15.4295 8.00221C15.4457 8.36969 15.4584 8.5122 15.542 8.67313C15.6599 8.8927 15.8883 9.03863 16.1531 9.06327C16.1792 9.06552 16.2053 9.06665 16.2311 9.06665C16.4668 9.06665 16.6855 8.96691 16.8252 8.79323C17.0107 8.56712 17.0105 8.35635 16.9924 7.90243C16.9391 6.49656 16.6317 5.23346 16.0786 4.1483C15.6843 3.37623 15.3077 2.87049 14.6391 2.21487C13.926 1.52156 13.3763 1.13369 12.5371 0.732765C11.648 0.3084 11.0191 0.174095 10.098 0.0616376C9.91212 0.0403879 9.56221 0.0126304 9.3194 0.00469493C8.85674 -0.0106115 8.67598 0.0018727 8.46236 0.191693C8.29861 0.335892 8.20937 0.554931 8.21674 0.793194C8.22407 1.02976 8.32664 1.24027 8.49948 1.37344Z" fill="#95559F"/>
<path d="M8.49948 1.37344C8.69471 1.51994 8.86553 1.53581 9.37608 1.56469C10.872 1.65055 11.8206 1.97013 12.8757 2.74475C14.1673 3.68967 14.9777 5.00772 15.2848 6.66234C15.3638 7.09072 15.4029 7.45426 15.4295 8.00221C15.4457 8.36969 15.4584 8.5122 15.542 8.67313C15.6599 8.8927 15.8883 9.03863 16.1531 9.06327C16.1792 9.06552 16.2053 9.06665 16.2311 9.06665C16.4668 9.06665 16.6855 8.96691 16.8252 8.79323C17.0107 8.56712 17.0105 8.35635 16.9924 7.90243C16.9391 6.49656 16.6317 5.23346 16.0786 4.1483C15.6843 3.37623 15.3077 2.87049 14.6391 2.21487C13.926 1.52156 13.3763 1.13369 12.5371 0.732765C11.648 0.3084 11.0191 0.174095 10.098 0.0616376C9.91212 0.0403879 9.56221 0.0126304 9.3194 0.00469493C8.85674 -0.0106115 8.67598 0.0018727 8.46236 0.191693C8.29861 0.335892 8.20937 0.554931 8.21674 0.793194C8.22407 1.02976 8.32664 1.24027 8.49948 1.37344Z" fill="url(#paint0_radial_333_3670)" fill-opacity="0.2"/>
<path d="M13.1624 7.45117C13.1624 7.84924 13.1953 8.22297 13.5877 8.41621C13.6953 8.47202 13.8356 8.50008 13.9724 8.50008C14.094 8.50008 14.2124 8.4777 14.3028 8.43238C14.4614 8.35076 14.6215 8.17851 14.6841 8.02269C14.7637 7.82181 14.7275 7.10158 14.7048 6.89844C14.5986 5.99094 14.2832 5.13415 13.7931 4.42102C12.9052 3.13102 11.5747 2.35099 9.83931 2.10254C9.25084 2.01584 8.81367 1.98523 8.55642 2.37792C8.35442 2.67628 8.38018 3.05678 8.61874 3.3234C8.80885 3.53902 9.08111 3.58776 9.32195 3.60702C10.0116 3.6614 10.7839 3.88722 11.2902 4.18219L11.2911 4.18246C11.8801 4.52358 12.3677 5.01943 12.7017 5.61668C12.9944 6.13906 13.1624 6.80773 13.1624 7.45117Z" fill="white"/>
<path d="M13.1624 7.45117C13.1624 7.84924 13.1953 8.22297 13.5877 8.41621C13.6953 8.47202 13.8356 8.50008 13.9724 8.50008C14.094 8.50008 14.2124 8.4777 14.3028 8.43238C14.4614 8.35076 14.6215 8.17851 14.6841 8.02269C14.7637 7.82181 14.7275 7.10158 14.7048 6.89844C14.5986 5.99094 14.2832 5.13415 13.7931 4.42102C12.9052 3.13102 11.5747 2.35099 9.83931 2.10254C9.25084 2.01584 8.81367 1.98523 8.55642 2.37792C8.35442 2.67628 8.38018 3.05678 8.61874 3.3234C8.80885 3.53902 9.08111 3.58776 9.32195 3.60702C10.0116 3.6614 10.7839 3.88722 11.2902 4.18219L11.2911 4.18246C11.8801 4.52358 12.3677 5.01943 12.7017 5.61668C12.9944 6.13906 13.1624 6.80773 13.1624 7.45117Z" fill="#95559F"/>
<path d="M13.1624 7.45117C13.1624 7.84924 13.1953 8.22297 13.5877 8.41621C13.6953 8.47202 13.8356 8.50008 13.9724 8.50008C14.094 8.50008 14.2124 8.4777 14.3028 8.43238C14.4614 8.35076 14.6215 8.17851 14.6841 8.02269C14.7637 7.82181 14.7275 7.10158 14.7048 6.89844C14.5986 5.99094 14.2832 5.13415 13.7931 4.42102C12.9052 3.13102 11.5747 2.35099 9.83931 2.10254C9.25084 2.01584 8.81367 1.98523 8.55642 2.37792C8.35442 2.67628 8.38018 3.05678 8.61874 3.3234C8.80885 3.53902 9.08111 3.58776 9.32195 3.60702C10.0116 3.6614 10.7839 3.88722 11.2902 4.18219L11.2911 4.18246C11.8801 4.52358 12.3677 5.01943 12.7017 5.61668C12.9944 6.13906 13.1624 6.80773 13.1624 7.45117Z" fill="url(#paint1_radial_333_3670)" fill-opacity="0.2"/>
<path d="M11.6531 5.01785C11.2655 4.66284 10.8113 4.44042 10.2248 4.31803C10.0905 4.28971 9.86275 4.26504 9.72111 4.2571C9.47687 4.2421 9.37631 4.24465 9.20263 4.32906C8.99269 4.43444 8.84564 4.62994 8.79859 4.86485C8.75184 5.0983 8.81164 5.33321 8.96463 5.5117C9.14143 5.71371 9.32248 5.76414 9.68767 5.80751C10.298 5.88062 10.6416 6.08601 10.836 6.49344C10.9343 6.70139 10.9901 6.9292 11.0224 7.25674C11.0559 7.5636 11.1159 7.76049 11.3344 7.92199C11.4718 8.02568 11.6457 8.07698 11.818 8.07698C12.0064 8.07698 12.1931 8.01549 12.3294 7.89394L12.3311 7.89281C12.6127 7.63811 12.6246 7.32218 12.5484 6.82919C12.4302 6.03953 12.1546 5.48079 11.6531 5.01785Z" fill="white"/>
<path d="M11.6531 5.01785C11.2655 4.66284 10.8113 4.44042 10.2248 4.31803C10.0905 4.28971 9.86275 4.26504 9.72111 4.2571C9.47687 4.2421 9.37631 4.24465 9.20263 4.32906C8.99269 4.43444 8.84564 4.62994 8.79859 4.86485C8.75184 5.0983 8.81164 5.33321 8.96463 5.5117C9.14143 5.71371 9.32248 5.76414 9.68767 5.80751C10.298 5.88062 10.6416 6.08601 10.836 6.49344C10.9343 6.70139 10.9901 6.9292 11.0224 7.25674C11.0559 7.5636 11.1159 7.76049 11.3344 7.92199C11.4718 8.02568 11.6457 8.07698 11.818 8.07698C12.0064 8.07698 12.1931 8.01549 12.3294 7.89394L12.3311 7.89281C12.6127 7.63811 12.6246 7.32218 12.5484 6.82919C12.4302 6.03953 12.1546 5.48079 11.6531 5.01785Z" fill="#95559F"/>
<path d="M11.6531 5.01785C11.2655 4.66284 10.8113 4.44042 10.2248 4.31803C10.0905 4.28971 9.86275 4.26504 9.72111 4.2571C9.47687 4.2421 9.37631 4.24465 9.20263 4.32906C8.99269 4.43444 8.84564 4.62994 8.79859 4.86485C8.75184 5.0983 8.81164 5.33321 8.96463 5.5117C9.14143 5.71371 9.32248 5.76414 9.68767 5.80751C10.298 5.88062 10.6416 6.08601 10.836 6.49344C10.9343 6.70139 10.9901 6.9292 11.0224 7.25674C11.0559 7.5636 11.1159 7.76049 11.3344 7.92199C11.4718 8.02568 11.6457 8.07698 11.818 8.07698C12.0064 8.07698 12.1931 8.01549 12.3294 7.89394L12.3311 7.89281C12.6127 7.63811 12.6246 7.32218 12.5484 6.82919C12.4302 6.03953 12.1546 5.48079 11.6531 5.01785Z" fill="url(#paint2_radial_333_3670)" fill-opacity="0.2"/>
<path d="M16.9982 13.7066C16.9843 13.398 16.8783 13.1221 16.6806 12.8838C16.4897 12.6585 15.2699 11.6941 14.7257 11.3215C14.3024 11.0333 13.6335 10.6276 13.3207 10.4692C12.8586 10.2394 12.3939 10.1992 11.9366 10.3508C11.8366 10.3842 11.7652 10.414 11.6981 10.4491C11.4666 10.5707 11.2966 10.7622 10.9663 11.1685C10.6124 11.5957 10.5387 11.6788 10.5396 11.6788C10.5061 11.6989 10.4529 11.7272 10.3883 11.7567C10.1251 11.8766 9.69356 11.7779 8.99177 11.436C8.39962 11.1495 7.86782 10.7818 7.2672 10.244C6.75553 9.7881 6.241 9.19679 5.95543 8.73806C5.55877 8.1017 5.31882 7.36533 5.31596 7.02334C5.31596 6.89016 5.37433 6.69892 5.43751 6.59353L5.46527 6.56491C5.48396 6.54678 5.50465 6.52722 5.53297 6.50229C5.63158 6.4136 5.77435 6.2949 5.92309 6.1773C6.57587 5.66306 6.78269 5.45481 6.89318 5.06806C6.99999 4.7105 6.90623 4.2702 6.59795 3.68288C6.13867 2.80653 4.6824 0.941361 4.07468 0.548108C3.97467 0.485487 3.81006 0.401053 3.69362 0.361973C3.44431 0.273853 3.08619 0.243838 2.86347 0.291152C2.55523 0.354337 2.21693 0.548407 1.47039 1.09071C1.06131 1.3902 0.430638 1.97583 0.259482 2.25576C-0.144253 2.93376 -0.0413933 3.52194 0.324657 4.5071C0.673443 5.44721 1.12081 6.39352 1.6526 7.31745L1.68036 7.3642C1.78747 7.5492 1.8971 7.73368 2.01214 7.91868L2.04189 7.96543C2.15607 8.14705 2.27168 8.32837 2.39264 8.50886L2.58331 8.78624C2.65443 8.88993 2.72525 8.99336 2.79863 9.09622C2.94342 9.29796 3.09187 9.4991 3.24573 9.69971C4.88586 11.8354 6.77535 13.5502 9.02182 14.941L9.11389 14.9988C9.44 15.1986 9.78706 15.3983 10.1452 15.5921L10.2851 15.6675C10.6557 15.8647 11.0079 16.0415 11.3618 16.2073L11.472 16.2574C11.8899 16.4509 12.2721 16.6172 12.6398 16.7654C13.0849 16.945 13.2909 17 13.6036 17C13.6592 17 13.7184 16.9983 13.783 16.9952C13.9847 16.9856 14.1661 16.9555 14.3377 16.9031C14.5789 16.83 14.8202 16.7073 15.0965 16.5166C15.1446 16.4835 15.1928 16.4498 15.2447 16.4115C15.3058 16.3665 15.371 16.3112 15.437 16.2543C15.7518 15.982 16.113 15.5865 16.404 15.1963C16.5592 14.9881 16.7655 14.6858 16.8684 14.4262C16.9647 14.1834 17.0083 13.9412 16.9981 13.7069L16.9982 13.7066Z" fill="white"/>
<path d="M16.9982 13.7066C16.9843 13.398 16.8783 13.1221 16.6806 12.8838C16.4897 12.6585 15.2699 11.6941 14.7257 11.3215C14.3024 11.0333 13.6335 10.6276 13.3207 10.4692C12.8586 10.2394 12.3939 10.1992 11.9366 10.3508C11.8366 10.3842 11.7652 10.414 11.6981 10.4491C11.4666 10.5707 11.2966 10.7622 10.9663 11.1685C10.6124 11.5957 10.5387 11.6788 10.5396 11.6788C10.5061 11.6989 10.4529 11.7272 10.3883 11.7567C10.1251 11.8766 9.69356 11.7779 8.99177 11.436C8.39962 11.1495 7.86782 10.7818 7.2672 10.244C6.75553 9.7881 6.241 9.19679 5.95543 8.73806C5.55877 8.1017 5.31882 7.36533 5.31596 7.02334C5.31596 6.89016 5.37433 6.69892 5.43751 6.59353L5.46527 6.56491C5.48396 6.54678 5.50465 6.52722 5.53297 6.50229C5.63158 6.4136 5.77435 6.2949 5.92309 6.1773C6.57587 5.66306 6.78269 5.45481 6.89318 5.06806C6.99999 4.7105 6.90623 4.2702 6.59795 3.68288C6.13867 2.80653 4.6824 0.941361 4.07468 0.548108C3.97467 0.485487 3.81006 0.401053 3.69362 0.361973C3.44431 0.273853 3.08619 0.243838 2.86347 0.291152C2.55523 0.354337 2.21693 0.548407 1.47039 1.09071C1.06131 1.3902 0.430638 1.97583 0.259482 2.25576C-0.144253 2.93376 -0.0413933 3.52194 0.324657 4.5071C0.673443 5.44721 1.12081 6.39352 1.6526 7.31745L1.68036 7.3642C1.78747 7.5492 1.8971 7.73368 2.01214 7.91868L2.04189 7.96543C2.15607 8.14705 2.27168 8.32837 2.39264 8.50886L2.58331 8.78624C2.65443 8.88993 2.72525 8.99336 2.79863 9.09622C2.94342 9.29796 3.09187 9.4991 3.24573 9.69971C4.88586 11.8354 6.77535 13.5502 9.02182 14.941L9.11389 14.9988C9.44 15.1986 9.78706 15.3983 10.1452 15.5921L10.2851 15.6675C10.6557 15.8647 11.0079 16.0415 11.3618 16.2073L11.472 16.2574C11.8899 16.4509 12.2721 16.6172 12.6398 16.7654C13.0849 16.945 13.2909 17 13.6036 17C13.6592 17 13.7184 16.9983 13.783 16.9952C13.9847 16.9856 14.1661 16.9555 14.3377 16.9031C14.5789 16.83 14.8202 16.7073 15.0965 16.5166C15.1446 16.4835 15.1928 16.4498 15.2447 16.4115C15.3058 16.3665 15.371 16.3112 15.437 16.2543C15.7518 15.982 16.113 15.5865 16.404 15.1963C16.5592 14.9881 16.7655 14.6858 16.8684 14.4262C16.9647 14.1834 17.0083 13.9412 16.9981 13.7069L16.9982 13.7066Z" fill="#95559F"/>
<path d="M16.9982 13.7066C16.9843 13.398 16.8783 13.1221 16.6806 12.8838C16.4897 12.6585 15.2699 11.6941 14.7257 11.3215C14.3024 11.0333 13.6335 10.6276 13.3207 10.4692C12.8586 10.2394 12.3939 10.1992 11.9366 10.3508C11.8366 10.3842 11.7652 10.414 11.6981 10.4491C11.4666 10.5707 11.2966 10.7622 10.9663 11.1685C10.6124 11.5957 10.5387 11.6788 10.5396 11.6788C10.5061 11.6989 10.4529 11.7272 10.3883 11.7567C10.1251 11.8766 9.69356 11.7779 8.99177 11.436C8.39962 11.1495 7.86782 10.7818 7.2672 10.244C6.75553 9.7881 6.241 9.19679 5.95543 8.73806C5.55877 8.1017 5.31882 7.36533 5.31596 7.02334C5.31596 6.89016 5.37433 6.69892 5.43751 6.59353L5.46527 6.56491C5.48396 6.54678 5.50465 6.52722 5.53297 6.50229C5.63158 6.4136 5.77435 6.2949 5.92309 6.1773C6.57587 5.66306 6.78269 5.45481 6.89318 5.06806C6.99999 4.7105 6.90623 4.2702 6.59795 3.68288C6.13867 2.80653 4.6824 0.941361 4.07468 0.548108C3.97467 0.485487 3.81006 0.401053 3.69362 0.361973C3.44431 0.273853 3.08619 0.243838 2.86347 0.291152C2.55523 0.354337 2.21693 0.548407 1.47039 1.09071C1.06131 1.3902 0.430638 1.97583 0.259482 2.25576C-0.144253 2.93376 -0.0413933 3.52194 0.324657 4.5071C0.673443 5.44721 1.12081 6.39352 1.6526 7.31745L1.68036 7.3642C1.78747 7.5492 1.8971 7.73368 2.01214 7.91868L2.04189 7.96543C2.15607 8.14705 2.27168 8.32837 2.39264 8.50886L2.58331 8.78624C2.65443 8.88993 2.72525 8.99336 2.79863 9.09622C2.94342 9.29796 3.09187 9.4991 3.24573 9.69971C4.88586 11.8354 6.77535 13.5502 9.02182 14.941L9.11389 14.9988C9.44 15.1986 9.78706 15.3983 10.1452 15.5921L10.2851 15.6675C10.6557 15.8647 11.0079 16.0415 11.3618 16.2073L11.472 16.2574C11.8899 16.4509 12.2721 16.6172 12.6398 16.7654C13.0849 16.945 13.2909 17 13.6036 17C13.6592 17 13.7184 16.9983 13.783 16.9952C13.9847 16.9856 14.1661 16.9555 14.3377 16.9031C14.5789 16.83 14.8202 16.7073 15.0965 16.5166C15.1446 16.4835 15.1928 16.4498 15.2447 16.4115C15.3058 16.3665 15.371 16.3112 15.437 16.2543C15.7518 15.982 16.113 15.5865 16.404 15.1963C16.5592 14.9881 16.7655 14.6858 16.8684 14.4262C16.9647 14.1834 17.0083 13.9412 16.9981 13.7069L16.9982 13.7066Z" fill="url(#paint3_radial_333_3670)" fill-opacity="0.2"/>
<defs>
<radialGradient id="paint0_radial_333_3670" cx="0" cy="0" r="1" gradientUnits="userSpaceOnUse" gradientTransform="translate(8.5 0.0561468) rotate(90) scale(17 16.0769)">
<stop stop-color="white"/>
<stop offset="1" stop-color="white" stop-opacity="0"/>
</radialGradient>
<radialGradient id="paint1_radial_333_3670" cx="0" cy="0" r="1" gradientUnits="userSpaceOnUse" gradientTransform="translate(8.5 0.0561468) rotate(90) scale(17 16.0769)">
<stop stop-color="white"/>
<stop offset="1" stop-color="white" stop-opacity="0"/>
</radialGradient>
<radialGradient id="paint2_radial_333_3670" cx="0" cy="0" r="1" gradientUnits="userSpaceOnUse" gradientTransform="translate(8.5 0.0561468) rotate(90) scale(17 16.0769)">
<stop stop-color="white"/>
<stop offset="1" stop-color="white" stop-opacity="0"/>
</radialGradient>
<radialGradient id="paint3_radial_333_3670" cx="0" cy="0" r="1" gradientUnits="userSpaceOnUse" gradientTransform="translate(8.5 0.0561468) rotate(90) scale(17 16.0769)">
<stop stop-color="white"/>
<stop offset="1" stop-color="white" stop-opacity="0"/>
</radialGradient>
</defs>
</svg>
