<svg width="22" height="22" viewBox="0 0 22 22" fill="none" xmlns="http://www.w3.org/2000/svg">
<path d="M10.836 0.333333H10.8306C4.8574 0.333333 0 5.19208 0 11.1667C0 13.5365 0.76375 15.7329 2.0624 17.5164L0.712292 21.5409L4.87635 20.2098C6.58937 21.3446 8.63281 22 10.836 22C16.8093 22 21.6667 17.1399 21.6667 11.1667C21.6667 5.19344 16.8093 0.333333 10.836 0.333333ZM17.1397 15.6314C16.8783 16.3694 15.841 16.9815 15.0136 17.1602C14.4476 17.2807 13.7082 17.3769 11.2193 16.345C8.03562 15.026 5.98542 11.7909 5.82562 11.581C5.6726 11.3711 4.53917 9.86802 4.53917 8.31344C4.53917 6.75885 5.32865 6.00187 5.64687 5.67687C5.90823 5.4101 6.34021 5.28823 6.75458 5.28823C6.88865 5.28823 7.00917 5.295 7.1175 5.30042C7.43573 5.31396 7.59552 5.33292 7.80542 5.83531C8.06677 6.465 8.70323 8.01958 8.77906 8.17937C8.85625 8.33917 8.93344 8.55583 8.8251 8.76573C8.72354 8.9824 8.63417 9.07854 8.47437 9.26271C8.31458 9.44687 8.16292 9.58771 8.00312 9.78542C7.85687 9.95739 7.69167 10.1416 7.87583 10.4598C8.06 10.7712 8.69646 11.8099 9.63354 12.6441C10.8428 13.7206 11.8232 14.0646 12.174 14.2108C12.4353 14.3192 12.7468 14.2934 12.9377 14.0903C13.1801 13.829 13.4794 13.3956 13.7841 12.9691C14.0007 12.663 14.2743 12.6251 14.5614 12.7334C14.8539 12.835 16.4017 13.6001 16.7199 13.7585C17.0381 13.9183 17.248 13.9942 17.3252 14.1282C17.401 14.2623 17.401 14.892 17.1397 15.6314Z" fill="#4FAF4D"/>
<path d="M10.836 0.333333H10.8306C4.8574 0.333333 0 5.19208 0 11.1667C0 13.5365 0.76375 15.7329 2.0624 17.5164L0.712292 21.5409L4.87635 20.2098C6.58937 21.3446 8.63281 22 10.836 22C16.8093 22 21.6667 17.1399 21.6667 11.1667C21.6667 5.19344 16.8093 0.333333 10.836 0.333333ZM17.1397 15.6314C16.8783 16.3694 15.841 16.9815 15.0136 17.1602C14.4476 17.2807 13.7082 17.3769 11.2193 16.345C8.03562 15.026 5.98542 11.7909 5.82562 11.581C5.6726 11.3711 4.53917 9.86802 4.53917 8.31344C4.53917 6.75885 5.32865 6.00187 5.64687 5.67687C5.90823 5.4101 6.34021 5.28823 6.75458 5.28823C6.88865 5.28823 7.00917 5.295 7.1175 5.30042C7.43573 5.31396 7.59552 5.33292 7.80542 5.83531C8.06677 6.465 8.70323 8.01958 8.77906 8.17937C8.85625 8.33917 8.93344 8.55583 8.8251 8.76573C8.72354 8.9824 8.63417 9.07854 8.47437 9.26271C8.31458 9.44687 8.16292 9.58771 8.00312 9.78542C7.85687 9.95739 7.69167 10.1416 7.87583 10.4598C8.06 10.7712 8.69646 11.8099 9.63354 12.6441C10.8428 13.7206 11.8232 14.0646 12.174 14.2108C12.4353 14.3192 12.7468 14.2934 12.9377 14.0903C13.1801 13.829 13.4794 13.3956 13.7841 12.9691C14.0007 12.663 14.2743 12.6251 14.5614 12.7334C14.8539 12.835 16.4017 13.6001 16.7199 13.7585C17.0381 13.9183 17.248 13.9942 17.3252 14.1282C17.401 14.2623 17.401 14.892 17.1397 15.6314Z" fill="url(#paint0_radial_333_3664)" fill-opacity="0.2"/>
<defs>
<radialGradient id="paint0_radial_333_3664" cx="0" cy="0" r="1" gradientUnits="userSpaceOnUse" gradientTransform="translate(10.8333 0.404893) rotate(90) scale(21.6667 20.4901)">
<stop stop-color="white"/>
<stop offset="1" stop-color="white" stop-opacity="0"/>
</radialGradient>
</defs>
</svg>
