<svg width="9" height="9" viewBox="0 0 9 9" fill="none" xmlns="http://www.w3.org/2000/svg">
<path opacity="0.1" d="M7.99978 6.24084V7.29463C8.00018 7.39245 7.9801 7.48928 7.94083 7.57892C7.90156 7.66855 7.84397 7.74901 7.77174 7.81515C7.69951 7.88128 7.61424 7.93163 7.52138 7.96297C7.42853 7.99431 7.33014 8.00595 7.23251 7.99715C6.14948 7.8797 5.10915 7.51035 4.19512 6.91878C3.34473 6.37947 2.62374 5.65992 2.08337 4.81121C1.48855 3.89485 1.11838 2.85153 1.00286 1.76578C0.994061 1.66865 1.00563 1.57075 1.03682 1.47832C1.06801 1.38589 1.11815 1.30096 1.18403 1.22892C1.24992 1.15689 1.33011 1.09934 1.4195 1.05993C1.50889 1.02052 1.60553 1.00013 1.70325 1.00003H2.75913C2.92994 0.998356 3.09553 1.05872 3.22504 1.16988C3.35455 1.28104 3.43914 1.4354 3.46304 1.6042C3.50761 1.94144 3.59026 2.27256 3.70941 2.59125C3.75677 2.71697 3.76702 2.85361 3.73895 2.98497C3.71088 3.11633 3.64566 3.2369 3.55103 3.33241L3.10405 3.77851C3.60508 4.6579 4.33465 5.38603 5.21579 5.88607L5.66278 5.43997C5.75848 5.34553 5.87929 5.28044 6.01091 5.25243C6.14253 5.22441 6.27944 5.23464 6.40541 5.2819C6.72473 5.40082 7.05651 5.48331 7.39442 5.52779C7.56538 5.55186 7.72153 5.6378 7.83314 5.76928C7.94476 5.90075 8.00407 6.06858 7.99978 6.24084Z" stroke="#F2F2F2" stroke-linecap="round" stroke-linejoin="round"/>
</svg>
