<svg width="100" height="98" viewBox="0 0 100 98" fill="none" xmlns="http://www.w3.org/2000/svg">
<path fill-rule="evenodd" clip-rule="evenodd" d="M37.044 69.433L37.779 70.021C38.2146 70.458 38.5637 70.9734 38.808 71.54C39.1832 72.4323 39.2858 73.4158 39.1026 74.3664C38.9195 75.3169 38.4589 76.1919 37.779 76.881C37.2915 77.3122 36.7475 77.6749 36.162 77.959C35.2664 78.323 34.2831 78.4139 33.336 78.2203C32.3888 78.0267 31.5201 77.5573 30.8391 76.8711C30.1581 76.1849 29.6954 75.3126 29.5091 74.3639C29.3227 73.4153 29.4212 72.4328 29.792 71.54C30.0401 70.9462 30.3882 70.3993 30.821 69.923C31.3965 69.3503 32.1052 68.9296 32.8835 68.6987C33.6618 68.4678 34.4853 68.4339 35.28 68.6L36.162 68.992C36.4743 69.0993 36.7709 69.2476 37.044 69.433ZM14.7 0H53.9C57.7987 0 61.5377 1.54875 64.2945 4.30553C67.0513 7.06232 68.6 10.8013 68.6 14.7V24.474C65.8764 21.8901 62.2805 20.7691 58.8 21.1029V14.7C58.8 13.4004 58.2838 12.1541 57.3648 11.2352C56.4459 10.3162 55.1996 9.8 53.9 9.8H14.7C13.4004 9.8 12.1541 10.3162 11.2352 11.2352C10.3162 12.1541 9.8 13.4004 9.8 14.7V83.3C9.8 84.5996 10.3162 85.8459 11.2352 86.7648C12.1541 87.6838 13.4004 88.2 14.7 88.2H53.9C55.1996 88.2 56.4459 87.6838 57.3648 86.7648C58.2838 85.8459 58.8 84.5996 58.8 83.3V49.9011L61.8579 52.91C63.7701 54.7915 66.1365 55.9334 68.6 56.3358V83.3C68.6 87.1987 67.0513 90.9377 64.2945 93.6945C61.5377 96.4513 57.7987 98 53.9 98H14.7C10.8013 98 7.06232 96.4513 4.30553 93.6945C1.54875 90.9377 0 87.1987 0 83.3V14.7C0 10.8013 1.54875 7.06232 4.30553 4.30553C7.06232 1.54875 10.8013 0 14.7 0Z" fill="#15A9F7"/>
<path d="M94 21L70.625 44L60 33.5455" stroke="#15A9F7" stroke-width="11" stroke-linecap="round" stroke-linejoin="round"/>
</svg>
