<svg width="132" height="99" viewBox="0 0 132 99" fill="none" xmlns="http://www.w3.org/2000/svg">
<path fill-rule="evenodd" clip-rule="evenodd" d="M24.5 44.1H53.9C55.1996 44.1 56.4459 44.6162 57.3648 45.5352C58.2838 46.4541 58.8 47.7004 58.8 49C58.8 50.2996 58.2838 51.5459 57.3648 52.4648C56.4459 53.3838 55.1996 53.9 53.9 53.9H24.5C23.2004 53.9 21.9541 53.3838 21.0352 52.4648C20.1162 51.5459 19.6 50.2996 19.6 49C19.6 47.7004 20.1162 46.4541 21.0352 45.5352C21.9541 44.6162 23.2004 44.1 24.5 44.1ZM24.5 24.5H73.5C74.7996 24.5 76.0459 25.0163 76.9648 25.9352C77.8838 26.8541 78.4 28.1004 78.4 29.4C78.4 30.6996 77.8838 31.9459 76.9648 32.8648C76.0459 33.7838 74.7996 34.3 73.5 34.3H24.5C23.2004 34.3 21.9541 33.7838 21.0352 32.8648C20.1162 31.9459 19.6 30.6996 19.6 29.4C19.6 28.1004 20.1162 26.8541 21.0352 25.9352C21.9541 25.0163 23.2004 24.5 24.5 24.5ZM14.7 0H83.3C87.1987 0 90.9377 1.54875 93.6945 4.30553C96.4513 7.06232 98 10.8013 98 14.7V24.5759C94.9784 22.9212 91.4213 22.6097 88.2 23.6344V14.7C88.2 13.4004 87.6838 12.1541 86.7648 11.2352C85.8459 10.3162 84.5996 9.8 83.3 9.8H14.7C13.4004 9.8 12.1541 10.3162 11.2352 11.2352C10.3162 12.1541 9.8 13.4004 9.8 14.7V63.7C9.8 64.9996 10.3162 66.2459 11.2352 67.1648C12.1541 68.0838 13.4004 68.6 14.7 68.6H73.5C74.1449 68.5963 74.7841 68.7199 75.3811 68.9637C75.9781 69.2076 76.5211 69.5669 76.979 70.021L88.2 81.291V49.3429L93.8579 54.91C95.0834 56.1158 96.4954 57.0179 98 57.6161V93.1C97.9952 94.0674 97.7041 95.0117 97.1635 95.8139C96.6228 96.6161 95.8568 97.2404 94.962 97.608C94.3805 97.8823 93.7428 98.0166 93.1 98C92.4551 98.0037 91.8159 97.8801 91.2189 97.6363C90.6218 97.3924 90.0789 97.0331 89.621 96.579L71.491 78.4H14.7C10.8013 78.4 7.06232 76.8513 4.30553 74.0945C1.54875 71.3377 0 67.5987 0 63.7V14.7C0 10.8013 1.54875 7.06232 4.30553 4.30553C7.06232 1.54875 10.8013 0 14.7 0Z" fill="#15A9F7"/>
<path d="M126 23L102.625 46L92 35.5455" stroke="#15A9F7" stroke-width="11" stroke-linecap="round" stroke-linejoin="round"/>
</svg>
