<svg width="124" height="99" viewBox="0 0 124 99" fill="none" xmlns="http://www.w3.org/2000/svg">
<path fill-rule="evenodd" clip-rule="evenodd" d="M78.4 29.6996H83.3C83.3481 29.6996 83.3962 29.6998 83.4443 29.7003C83.9268 30.4589 84.4991 31.1767 85.1612 31.8388L88.3223 35L85.1612 38.1612C84.6953 38.627 84.2739 39.1205 83.897 39.6363C83.6999 39.6119 83.5006 39.5994 83.3 39.5994H44.1C42.8004 39.5994 41.5541 40.121 40.6352 41.0493C39.7163 41.9775 39.2 43.2366 39.2 44.5494V70.7345C39.2 72.0473 39.7163 73.3064 40.6352 74.2346C41.5541 75.1629 42.8004 75.6844 44.1 75.6844H79.821C80.4693 75.6872 81.1106 75.8198 81.7078 76.0747C82.305 76.3296 82.8462 76.7017 83.3 77.1694L88.2 82.1194V58.0767C91.2386 59.6689 94.7948 59.9253 98 58.8456V94.0487C97.9952 95.0259 97.7041 95.9799 97.1635 96.7903C96.6228 97.6007 95.8568 98.2313 94.962 98.6026C94.3805 98.8797 93.7428 99.0154 93.1 98.9986C92.4551 99.0024 91.8159 98.8775 91.2189 98.6312C90.6218 98.3849 90.0789 98.0219 89.621 97.5631L78.008 85.7823H44.1C40.2013 85.7823 36.4623 84.2178 33.7055 81.4329C30.9487 78.648 29.4 74.8709 29.4 70.9325V63.8046H22.148L8.379 77.7634C7.92114 78.2222 7.37815 78.5851 6.78114 78.8315C6.18414 79.0778 5.54487 79.2027 4.9 79.1989C4.25724 79.2156 3.61953 79.08 3.038 78.8029C2.14317 78.4316 1.37717 77.8009 0.836533 76.9905C0.2959 76.1801 0.00482886 75.2262 0 74.249V14.8498C0 10.9114 1.54875 7.13428 4.30553 4.3494C7.06232 1.56453 10.8013 0 14.7 0H63.7C67.5987 0 71.3377 1.56453 74.0945 4.3494C76.8513 7.13428 78.4 10.9114 78.4 14.8498V29.6996ZM29.4 53.9048V44.5494C29.4 40.611 30.9487 36.8339 33.7055 34.049C36.4623 31.2641 40.2013 29.6996 44.1 29.6996H68.6V14.8498C68.6 13.537 68.0838 12.278 67.1648 11.3497C66.2459 10.4214 64.9996 9.89986 63.7 9.89986H14.7C13.4004 9.89986 12.1541 10.4214 11.2352 11.3497C10.3162 12.278 9.8 13.537 9.8 14.8498V62.3196L16.66 55.3402C17.1179 54.8815 17.6609 54.5185 18.2579 54.2722C18.8549 54.0258 19.4941 53.901 20.139 53.9048H29.4Z" fill="#D9D9D9"/>
<path d="M118 23L94 47M94 23L118 47" stroke="#D9D9D9" stroke-width="11" stroke-linecap="round" stroke-linejoin="round"/>
</svg>
