<svg width="128" height="90" viewBox="0 0 128 90" fill="none" xmlns="http://www.w3.org/2000/svg">
<path fill-rule="evenodd" clip-rule="evenodd" d="M36.8182 32.7273H53.1818C54.2668 32.7273 55.3073 33.1583 56.0745 33.9255C56.8417 34.6927 57.2727 35.7332 57.2727 36.8182V85.9091C57.2727 86.9941 56.8417 88.0346 56.0745 88.8018C55.3073 89.569 54.2668 90 53.1818 90H36.8182C35.7332 90 34.6927 89.569 33.9255 88.8018C33.1583 88.0346 32.7273 86.9941 32.7273 85.9091V36.8182C32.7273 35.7332 33.1583 34.6927 33.9255 33.9255C34.6927 33.1583 35.7332 32.7273 36.8182 32.7273ZM40.9091 81.8182H49.0909V40.9091H40.9091V81.8182ZM69.5455 0H85.9091C86.9941 0 88.0346 0.431005 88.8018 1.1982C89.569 1.96539 90 3.00593 90 4.09091V21.2055C87.2227 20.7578 84.325 21.2498 81.8182 22.6774V8.18182H73.6364V81.8182H81.8182V44.9992L89.8579 52.91C89.905 52.9563 89.9524 53.0022 90 53.0477V85.9091C90 86.9941 89.569 88.0346 88.8018 88.8018C88.0346 89.569 86.9941 90 85.9091 90H69.5455C68.4605 90 67.4199 89.569 66.6527 88.8018C65.8855 88.0346 65.4545 86.9941 65.4545 85.9091V4.09091C65.4545 3.00593 65.8855 1.96539 66.6527 1.1982C67.4199 0.431005 68.4605 0 69.5455 0ZM4.09091 57.2727H20.4545C21.5395 57.2727 22.5801 57.7037 23.3473 58.4709C24.1144 59.2381 24.5455 60.2787 24.5455 61.3636V85.9091C24.5455 86.9941 24.1144 88.0346 23.3473 88.8018C22.5801 89.569 21.5395 90 20.4545 90H4.09091C3.00593 90 1.96539 89.569 1.1982 88.8018C0.431005 88.0346 0 86.9941 0 85.9091V61.3636C0 60.2787 0.431005 59.2381 1.1982 58.4709C1.96539 57.7037 3.00593 57.2727 4.09091 57.2727ZM8.18182 81.8182H16.3636V65.4545H8.18182V81.8182Z" fill="#15A9F7"/>
<path d="M122 21L98.625 44L88 33.5455" stroke="#15A9F7" stroke-width="11" stroke-linecap="round" stroke-linejoin="round"/>
</svg>
