<svg width="124" height="98" viewBox="0 0 124 98" fill="none" xmlns="http://www.w3.org/2000/svg">
<path fill-rule="evenodd" clip-rule="evenodd" d="M45.5352 21.0352C46.4541 20.1162 47.7004 19.6 49 19.6C50.2996 19.6 51.5459 20.1162 52.4648 21.0352C53.3838 21.9541 53.9 23.2004 53.9 24.5V73.5C53.9 74.7996 53.3838 76.0459 52.4648 76.9648C51.5459 77.8838 50.2996 78.4 49 78.4C47.7004 78.4 46.4541 77.8838 45.5352 76.9648C44.6162 76.0459 44.1 74.7996 44.1 73.5V24.5C44.1 23.2004 44.6162 21.9541 45.5352 21.0352ZM21.0352 50.4352C21.9541 49.5163 23.2004 49 24.5 49C25.7996 49 27.0459 49.5163 27.9648 50.4352C28.8838 51.3541 29.4 52.6004 29.4 53.9V73.5C29.4 74.7996 28.8838 76.0459 27.9648 76.9648C27.0459 77.8838 25.7996 78.4 24.5 78.4C23.2004 78.4 21.9541 77.8838 21.0352 76.9648C20.1162 76.0459 19.6 74.7996 19.6 73.5V53.9C19.6 52.6004 20.1162 51.3541 21.0352 50.4352ZM70.0352 40.6352C70.9541 39.7163 72.2004 39.2 73.5 39.2C74.7996 39.2 76.0459 39.7163 76.9648 40.6352C77.8838 41.5541 78.4 42.8004 78.4 44.1V73.5C78.4 74.7996 77.8838 76.0459 76.9648 76.9648C76.0459 77.8838 74.7996 78.4 73.5 78.4C72.2004 78.4 70.9541 77.8838 70.0352 76.9648C69.1162 76.0459 68.6 74.7996 68.6 73.5V44.1C68.6 42.8004 69.1162 41.5541 70.0352 40.6352ZM14.7 0H83.3C87.1987 0 90.9377 1.54875 93.6945 4.30553C95.825 6.4361 97.2341 9.15334 97.7643 12.0776C94.5224 11.057 90.9468 11.389 87.9222 13.0734C87.681 12.3882 87.2882 11.7586 86.7648 11.2352C85.8459 10.3162 84.5996 9.8 83.3 9.8H14.7C13.4004 9.8 12.1541 10.3162 11.2352 11.2352C10.3162 12.1541 9.8 13.4004 9.8 14.7V83.3C9.8 84.5996 10.3162 85.8459 11.2352 86.7648C12.1541 87.6838 13.4004 88.2 14.7 88.2H83.3C84.5996 88.2 85.8459 87.6838 86.7648 86.7648C87.6838 85.8459 88.2 84.5996 88.2 83.3V59.0767C91.2386 60.6689 94.7948 60.9253 98 59.8456V83.3C98 87.1987 96.4513 90.9377 93.6945 93.6945C90.9377 96.4513 87.1987 98 83.3 98H14.7C10.8013 98 7.06232 96.4513 4.30553 93.6945C1.54875 90.9377 0 87.1987 0 83.3V14.7C0 10.8013 1.54875 7.06232 4.30553 4.30553C7.06232 1.54875 10.8013 0 14.7 0ZM88.2 36.1223L88.3223 36L88.2 35.8777V36.1223Z" fill="#D9D9D9"/>
<path d="M118 24L94 48M94 24L118 48" stroke="#D9D9D9" stroke-width="11" stroke-linecap="round" stroke-linejoin="round"/>
</svg>
