<svg width="121" height="98" viewBox="0 0 121 98" fill="none" xmlns="http://www.w3.org/2000/svg">
<path fill-rule="evenodd" clip-rule="evenodd" d="M21.7771 8.25799C29.8351 2.8738 39.3087 0 49 0C55.4348 0 61.8065 1.26742 67.7515 3.7299C73.6965 6.19238 79.0982 9.8017 83.6482 14.3518C83.9555 14.659 84.2584 14.9701 84.557 15.285C83.7032 15.7993 82.8977 16.4247 82.1612 17.1612C80.3648 18.9575 79.2295 21.1645 78.7552 23.48C74.76 18.8218 69.7113 15.1491 64.0012 12.7839C56.8383 9.81697 48.9565 9.04068 41.3525 10.5532C33.7484 12.0658 26.7636 15.7992 21.2814 21.2814C15.7992 26.7636 12.0658 33.7484 10.5532 41.3525C9.0407 48.9565 9.81699 56.8383 12.7839 64.0012C15.7509 71.164 20.7753 77.2862 27.2217 81.5936C33.6681 85.9009 41.247 88.2 49 88.2C59.3965 88.2 69.3672 84.07 76.7186 76.7186C81.0304 72.4068 84.234 67.194 86.146 61.5226C89.4404 62.9091 93.2084 62.8205 96.4423 61.2569C95.0726 66.5584 92.8166 71.6215 89.742 76.2229C84.3578 84.2809 76.7051 90.5614 67.7515 94.2701C58.7979 97.9788 48.9457 98.9491 39.4406 97.0585C29.9355 95.1678 21.2046 90.501 14.3518 83.6482C7.49902 76.7954 2.83222 68.0645 0.941543 58.5594C-0.949132 49.0543 0.0212309 39.2021 3.72992 30.2485C7.43862 21.2949 13.7191 13.6422 21.7771 8.25799ZM53.9 46.158L64.19 52.087H64.092C65.036 52.6219 65.7757 53.455 66.1952 54.4555C66.6147 55.4561 66.6902 56.5677 66.41 57.6158C66.1297 58.664 65.5095 59.5895 64.6466 60.2472C63.7837 60.9049 62.727 61.2576 61.642 61.25C60.7836 61.2559 59.9388 61.0363 59.192 60.613L46.452 53.263L46.011 52.822L45.227 52.185C45.0354 51.9424 44.8711 51.6795 44.737 51.401C44.5773 51.1379 44.4459 50.8587 44.345 50.568C44.2117 50.2564 44.129 49.9256 44.1 49.588V49V24.5C44.1 23.2004 44.6163 21.9541 45.5352 21.0352C46.4541 20.1162 47.7005 19.6 49 19.6C50.2996 19.6 51.5459 20.1162 52.4648 21.0352C53.3838 21.9541 53.9 23.2004 53.9 24.5V46.158Z" fill="#D9D9D9"/>
<path d="M115 26L91 50M91 26L115 50" stroke="#D9D9D9" stroke-width="11" stroke-linecap="round" stroke-linejoin="round"/>
</svg>
