<svg width="20" height="12" viewBox="0 0 20 12" fill="none" xmlns="http://www.w3.org/2000/svg">
<path d="M19.1305 9.01693C18.695 8.49422 18.2002 8.02574 17.7216 7.57267C17.5515 7.41154 17.3755 7.24495 17.2059 7.07931C16.719 6.60323 16.7013 6.42437 17.0868 5.8836C17.3535 5.51085 17.6363 5.13761 17.9098 4.77664C18.1578 4.44915 18.4144 4.11047 18.6602 3.7707L18.7107 3.70084C19.1806 3.05064 19.6666 2.3783 19.9252 1.56724C19.9924 1.35326 20.0629 1.03837 19.9017 0.775059C19.7405 0.511972 19.428 0.431708 19.2068 0.394218C19.0974 0.375666 18.9888 0.373134 18.888 0.373134L15.8106 0.370932L15.7852 0.370712C15.3199 0.370712 15.0063 0.589979 14.8267 1.04112C14.6551 1.47217 14.4667 1.93118 14.2517 2.36762C13.8237 3.23671 13.2803 4.2377 12.4939 5.07254L12.4606 5.10805C12.3678 5.20786 12.2626 5.32087 12.1857 5.32087C12.1739 5.32087 12.161 5.31862 12.1465 5.31405C11.9836 5.25058 11.8743 4.85625 11.8792 4.67282C11.8793 4.67029 11.8794 4.66775 11.8794 4.66522L11.8772 1.10839C11.8772 1.09606 11.8763 1.08384 11.8747 1.07162C11.7964 0.49342 11.623 0.133498 10.9678 0.00517445C10.9504 0.00170625 10.9326 0 10.9149 0H7.71504C7.19371 0 6.90645 0.21189 6.63643 0.529038C6.56354 0.613816 6.41182 0.790308 6.48702 1.0044C6.56332 1.22169 6.81099 1.26815 6.89164 1.28323C7.29197 1.35942 7.51762 1.60429 7.58154 2.03214C7.69313 2.77511 7.70683 3.56811 7.6247 4.52781C7.6018 4.79454 7.55649 5.00053 7.48184 5.17653C7.4645 5.2176 7.40301 5.35165 7.34031 5.3517C7.32038 5.3517 7.26274 5.34389 7.15776 5.27155C6.90953 5.1015 6.72792 4.85883 6.5162 4.55908C5.79591 3.54114 5.1914 2.41976 4.66787 1.13008C4.4737 0.655324 4.11108 0.389539 3.64634 0.381722C3.13569 0.37396 2.67272 0.370216 2.23115 0.370216C1.74869 0.370216 1.3014 0.374675 0.864629 0.383759C0.490725 0.390365 0.232096 0.502448 0.0960105 0.717146C-0.0402952 0.932009 -0.031432 1.21425 0.12238 1.5559C1.35365 4.29319 2.47002 6.28344 3.74224 8.00939C4.63368 9.21709 5.52782 10.053 6.55583 10.6399C7.6389 11.2595 8.85266 11.5608 10.2664 11.5608C10.4266 11.5608 10.5923 11.5569 10.7594 11.549C11.5809 11.509 11.8856 11.2117 11.9242 10.4119C11.9425 10.0031 11.9872 9.57443 12.1881 9.20883C12.315 8.9785 12.4332 8.9785 12.4721 8.9785C12.547 8.9785 12.6398 9.01296 12.7395 9.07754C12.9183 9.19425 13.0716 9.35059 13.1973 9.48717C13.3156 9.61693 13.4326 9.748 13.5496 9.87913C13.8023 10.1621 14.0636 10.4547 14.3365 10.7323C14.934 11.3401 15.5921 11.6074 16.348 11.5494H19.1695C19.1755 11.5494 19.1815 11.5492 19.1875 11.5488C19.4687 11.5302 19.7121 11.3743 19.8555 11.1209C20.0332 10.8071 20.0296 10.4067 19.846 10.0496C19.6376 9.64588 19.3673 9.30093 19.1305 9.01693Z" fill="#F2F2F2"/>
</svg>
