<svg width="13" height="20" viewBox="0 0 13 20" fill="none" xmlns="http://www.w3.org/2000/svg">
<path d="M0.184147 10.7342C-0.326686 11.7383 0.253314 12.2183 1.57665 13.0383C2.70165 13.7333 4.25581 13.9875 5.25415 14.0892C4.84498 14.4825 6.71998 12.6792 1.31998 17.8734C0.17498 18.9709 2.01831 20.7317 3.16248 19.6575L6.25998 16.67C7.44581 17.8109 8.58248 18.9042 9.35748 19.6617C10.5025 20.74 12.345 18.9942 11.2125 17.8775C11.1275 17.7967 7.01498 13.8517 7.26581 14.0933C8.27665 13.9917 9.80748 13.7225 10.9191 13.0425L10.9183 13.0417C12.2416 12.2175 12.8216 11.7383 12.3183 10.7342C12.0141 10.1642 11.1941 9.68751 10.1025 10.5117C10.1025 10.5117 8.62831 11.6408 6.25081 11.6408C3.87248 11.6408 2.39915 10.5117 2.39915 10.5117C1.30831 9.68334 0.48498 10.1642 0.184147 10.7342Z" fill="white"/>
<path d="M6.24912 10.1183C9.14745 10.1183 11.5141 7.85333 11.5141 5.065C11.5141 2.265 9.14745 0 6.24912 0C3.34995 0 0.983284 2.265 0.983284 5.065C0.983284 7.85333 3.34995 10.1183 6.24912 10.1183ZM6.24912 2.56583C7.67328 2.56583 8.83495 3.68333 8.83495 5.065C8.83495 6.435 7.67328 7.5525 6.24912 7.5525C4.82495 7.5525 3.66328 6.435 3.66328 5.065C3.66245 3.6825 4.82412 2.56583 6.24912 2.56583Z" fill="white"/>
</svg>
