<svg width="20" height="12" viewBox="0 0 20 12" fill="none" xmlns="http://www.w3.org/2000/svg">
<path d="M19.1305 9.35951C18.695 8.81695 18.2002 8.33066 17.7216 7.86038C17.5515 7.69313 17.3755 7.52021 17.2059 7.34827C16.719 6.85411 16.7013 6.66845 17.0868 6.10714C17.3535 5.72023 17.6363 5.33281 17.9098 4.95812C18.1578 4.61819 18.4144 4.26664 18.6602 3.91396L18.7107 3.84145C19.1806 3.16654 19.6666 2.46866 19.9253 1.62678C19.9924 1.40467 20.0629 1.07782 19.9017 0.804506C19.7406 0.531423 19.428 0.44811 19.2068 0.409196C19.0975 0.389939 18.9888 0.387311 18.888 0.387311L15.8106 0.385025L15.7852 0.384796C15.3199 0.384796 15.0064 0.612394 14.8267 1.08068C14.6551 1.5281 14.4667 2.00455 14.2517 2.45758C13.8238 3.35968 13.2803 4.3987 12.4939 5.26526L12.4606 5.30212C12.3678 5.40572 12.2626 5.52303 12.1857 5.52303C12.1739 5.52303 12.1611 5.52069 12.1465 5.51595C11.9836 5.45006 11.8743 5.04075 11.8792 4.85035C11.8793 4.84773 11.8794 4.8451 11.8794 4.84247L11.8772 1.1505C11.8772 1.1377 11.8763 1.12502 11.8747 1.11233C11.7965 0.512166 11.623 0.13857 10.9678 0.00537104C10.9504 0.00177108 10.9326 0 10.9149 0H7.71504C7.19371 0 6.90646 0.219941 6.63643 0.549138C6.56354 0.637137 6.41182 0.820335 6.48702 1.04256C6.56332 1.2681 6.811 1.31633 6.89165 1.33199C7.29198 1.41107 7.51763 1.66524 7.58154 2.10935C7.69313 2.88054 7.70684 3.70368 7.6247 4.69984C7.6018 4.9767 7.55649 5.19052 7.48185 5.37321C7.4645 5.41583 7.40301 5.55498 7.34031 5.55503C7.32038 5.55503 7.26274 5.54692 7.15776 5.47183C6.90954 5.29532 6.72793 5.04344 6.5162 4.7323C5.79592 3.67568 5.1914 2.51169 4.66787 1.17302C4.47371 0.680222 4.11109 0.404339 3.64635 0.396225C3.1357 0.388168 2.67272 0.384282 2.23116 0.384282C1.74869 0.384282 1.3014 0.388911 0.86463 0.398339C0.490725 0.405196 0.232096 0.521538 0.0960106 0.744393C-0.0402952 0.967419 -0.031432 1.26039 0.12238 1.61501C1.35365 4.4563 2.47002 6.52217 3.74224 8.31369C4.63368 9.56728 5.52782 10.435 6.55584 11.0442C7.63891 11.6873 8.85266 12 10.2664 12C10.4266 12 10.5923 11.9959 10.7594 11.9878C11.5809 11.9463 11.8856 11.6377 11.9242 10.8074C11.9425 10.3832 11.9872 9.93819 12.1881 9.55871C12.315 9.31962 12.4332 9.31963 12.4721 9.31963C12.547 9.31963 12.6398 9.3554 12.7395 9.42242C12.9183 9.54357 13.0716 9.70585 13.1973 9.84762C13.3156 9.9823 13.4326 10.1184 13.5497 10.2545C13.8023 10.5482 14.0636 10.852 14.3366 11.14C14.934 11.7709 15.5921 12.0484 16.348 11.9882H19.1695C19.1755 11.9882 19.1815 11.9879 19.1875 11.9875C19.4687 11.9683 19.7122 11.8064 19.8556 11.5434C20.0332 11.2177 20.0296 10.8021 19.846 10.4314C19.6376 10.0124 19.3673 9.65431 19.1305 9.35951Z" fill="white"/>
</svg>
