<svg width="13" height="13" viewBox="0 0 13 13" fill="none" xmlns="http://www.w3.org/2000/svg">
<path d="M6.50163 0H6.49837C2.91444 0 0 2.91525 0 6.5C0 7.92188 0.45825 9.23975 1.23744 10.3098L0.427375 12.7246L2.92581 11.9259C3.95362 12.6068 5.17969 13 6.50163 13C10.0856 13 13 10.0839 13 6.5C13 2.91606 10.0856 0 6.50163 0ZM10.2838 9.17881C10.127 9.62162 9.50463 9.98887 9.00819 10.0961C8.66856 10.1684 8.22494 10.2261 6.73156 9.607C4.82137 8.81563 3.59125 6.87456 3.49538 6.74862C3.40356 6.62269 2.7235 5.72081 2.7235 4.78806C2.7235 3.85531 3.19719 3.40113 3.38812 3.20613C3.54494 3.04606 3.80413 2.97294 4.05275 2.97294C4.13319 2.97294 4.2055 2.977 4.2705 2.98025C4.46144 2.98837 4.55731 2.99975 4.68325 3.30119C4.84006 3.679 5.22194 4.61175 5.26744 4.70763C5.31375 4.8035 5.36006 4.9335 5.29506 5.05944C5.23413 5.18944 5.1805 5.24713 5.08463 5.35763C4.98875 5.46813 4.89775 5.55263 4.80188 5.67125C4.71412 5.77444 4.615 5.88494 4.7255 6.07588C4.836 6.26275 5.21788 6.88594 5.78012 7.38644C6.50569 8.03237 7.09394 8.23875 7.30438 8.3265C7.46119 8.3915 7.64806 8.37606 7.76262 8.25419C7.90806 8.09738 8.08762 7.83738 8.27044 7.58144C8.40044 7.39781 8.56456 7.37506 8.73681 7.44006C8.91231 7.501 9.841 7.96006 10.0319 8.05513C10.2229 8.151 10.3488 8.1965 10.3951 8.27694C10.4406 8.35738 10.4406 8.73519 10.2838 9.17881Z" fill="white"/>
</svg>
