<svg width="18" height="18" viewBox="0 0 18 18" fill="none" xmlns="http://www.w3.org/2000/svg">
<path d="M8.66883 -0.000324249H8.6645C3.88592 -0.000324249 0 3.88668 0 8.66634C0 10.5622 0.611 12.3193 1.64992 13.7461L0.569833 16.9658L3.90108 15.9008C5.2715 16.8087 6.90625 17.333 8.66883 17.333C13.4474 17.333 17.3333 13.4449 17.3333 8.66634C17.3333 3.88776 13.4474 -0.000324249 8.66883 -0.000324249ZM13.7118 12.2381C13.5027 12.8285 12.6728 13.3182 12.0109 13.4612C11.5581 13.5576 10.9666 13.6345 8.97542 12.809C6.4285 11.7538 4.78833 9.16576 4.6605 8.99784C4.53808 8.82993 3.63133 7.62743 3.63133 6.38376C3.63133 5.14009 4.26292 4.53451 4.5175 4.27451C4.72658 4.06109 5.07217 3.96359 5.40367 3.96359C5.51092 3.96359 5.60733 3.96901 5.694 3.97334C5.94858 3.98418 6.07642 3.99934 6.24433 4.40126C6.45342 4.90501 6.96258 6.14868 7.02325 6.27651C7.085 6.40434 7.14675 6.57768 7.06008 6.74559C6.97883 6.91893 6.90733 6.99584 6.7795 7.14318C6.65167 7.29051 6.53033 7.40318 6.4025 7.56134C6.2855 7.69893 6.15333 7.84626 6.30067 8.10084C6.448 8.35001 6.95717 9.18093 7.70683 9.84826C8.67425 10.7095 9.45858 10.9847 9.73917 11.1017C9.94825 11.1883 10.1974 11.1678 10.3502 11.0053C10.5441 10.7962 10.7835 10.4495 11.0273 10.1083C11.2006 9.86343 11.4194 9.83309 11.6491 9.91976C11.8831 10.001 13.1213 10.6131 13.3759 10.7398C13.6305 10.8677 13.7984 10.9283 13.8602 11.0356C13.9208 11.1428 13.9208 11.6466 13.7118 12.2381Z" fill="white"/>
</svg>
